<svg width="1440" height="898" viewBox="0 0 1440 898" fill="none" xmlns="http://www.w3.org/2000/svg">
<mask id="mask0_125_12352" style="mask-type:alpha" maskUnits="userSpaceOnUse" x="-36" y="0" width="1512" height="923">
<rect x="-36" width="1512" height="923" fill="#2EC4B6"/>
</mask>
<g mask="url(#mask0_125_12352)">
<path d="M-192 443.275L719.5 490.5L-192 537.725V443.275Z" fill="#32D6C7"/>
<path d="M-148.716 208.97L719.501 490.5L-173.166 300.202L-148.716 208.97Z" fill="#32D6C7"/>
<path d="M-46.2691 -6.15039L719.501 490.5L-93.4941 75.6497L-46.2691 -6.15039Z" fill="#32D6C7"/>
<path d="M108.365 -187.419L719.501 490.5L41.582 -120.636L108.365 -187.419Z" fill="#32D6C7"/>
<path d="M304.65 -322.495L719.5 490.5L222.85 -275.27L304.65 -322.495Z" fill="#32D6C7"/>
<path d="M529.201 -402.167L719.499 490.5L437.969 -377.717L529.201 -402.167Z" fill="#32D6C7"/>
<path d="M766.725 -421L719.5 490.5L672.275 -421H766.725Z" fill="#32D6C7"/>
<path d="M1001.03 -377.717L719.5 490.5L909.798 -402.167L1001.03 -377.717Z" fill="#32D6C7"/>
<path d="M1216.15 -275.27L719.5 490.5L1134.35 -322.495L1216.15 -275.27Z" fill="#32D6C7"/>
<path d="M1397.42 -120.636L719.5 490.5L1330.64 -187.419L1397.42 -120.636Z" fill="#32D6C7"/>
<path d="M1532.49 75.6497L719.5 490.5L1485.27 -6.15039L1532.49 75.6497Z" fill="#32D6C7"/>
<path d="M1612.17 300.202L719.5 490.5L1587.72 208.97L1612.17 300.202Z" fill="#32D6C7"/>
<path d="M1631 537.725L719.5 490.5L1631 443.275V537.725Z" fill="#32D6C7"/>
<path d="M1587.72 772.031L719.5 490.5L1612.17 680.798L1587.72 772.031Z" fill="#32D6C7"/>
<path d="M1485.27 987.15L719.5 490.5L1532.49 905.35L1485.27 987.15Z" fill="#32D6C7"/>
<path d="M1330.64 1168.42L719.5 490.5L1397.42 1101.64L1330.64 1168.42Z" fill="#32D6C7"/>
<path d="M1134.35 1303.49L719.5 490.5L1216.15 1256.27L1134.35 1303.49Z" fill="#32D6C7"/>
<path d="M909.798 1383.17L719.5 490.5L1001.03 1358.72L909.798 1383.17Z" fill="#32D6C7"/>
<path d="M672.275 1402L719.5 490.5L766.725 1402H672.275Z" fill="#32D6C7"/>
<path d="M437.969 1358.72L719.499 490.5L529.201 1383.17L437.969 1358.72Z" fill="#32D6C7"/>
<path d="M222.85 1256.27L719.5 490.5L304.65 1303.49L222.85 1256.27Z" fill="#32D6C7"/>
<path d="M41.582 1101.64L719.501 490.5L108.365 1168.42L41.582 1101.64Z" fill="#32D6C7"/>
<path d="M-93.4941 905.35L719.501 490.5L-46.2691 987.15L-93.4941 905.35Z" fill="#32D6C7"/>
<path d="M-173.166 680.798L719.501 490.5L-148.716 772.031L-173.166 680.798Z" fill="#32D6C7"/>
<path d="M-192 443.275L719.5 490.5L-192 537.725V443.275Z" fill="#32D6C7"/>
<path d="M-148.716 208.97L719.501 490.5L-173.166 300.202L-148.716 208.97Z" fill="#32D6C7"/>
<path d="M-46.2691 -6.15039L719.501 490.5L-93.4941 75.6497L-46.2691 -6.15039Z" fill="#32D6C7"/>
<path d="M108.365 -187.419L719.501 490.5L41.582 -120.636L108.365 -187.419Z" fill="#32D6C7"/>
<path d="M304.65 -322.495L719.5 490.5L222.85 -275.27L304.65 -322.495Z" fill="#32D6C7"/>
<path d="M529.201 -402.167L719.499 490.5L437.969 -377.717L529.201 -402.167Z" fill="#32D6C7"/>
<path d="M766.725 -421L719.5 490.5L672.275 -421H766.725Z" fill="#32D6C7"/>
</g>
</svg>
