<svg width="40" height="40" viewBox="0 0 40 40" fill="none" xmlns="http://www.w3.org/2000/svg">
<path d="M20.12 29.4394C25.2653 29.4394 29.4377 25.2681 29.4377 20.1229C29.4377 14.9777 25.2663 10.8054 20.12 10.8054C14.9736 10.8054 10.8022 14.9767 10.8022 20.1229C10.8022 25.2691 14.9736 29.4394 20.12 29.4394Z" fill="#2EC4B6"/>
<path d="M20.1191 10.1224C14.6068 10.1224 10.1196 14.6105 10.1196 20.1227C10.1196 25.6349 14.6068 30.1219 20.1191 30.1219C25.6315 30.1219 30.1196 25.6349 30.1196 20.1227C30.1196 14.6105 25.6315 10.1224 20.1191 10.1224ZM20.1191 28.781C15.3388 28.781 11.4606 24.9029 11.4606 20.1227C11.4606 15.3424 15.3388 11.4643 20.1191 11.4643C24.8995 11.4643 28.7777 15.3414 28.7777 20.1227C28.7777 24.9039 24.8995 28.781 20.1191 28.781Z" fill="#011627"/>
<path fill-rule="evenodd" clip-rule="evenodd" d="M20 0C8.95076 0 0 8.95152 0 20.0005C0 31.0495 8.95076 40 20 40C31.0492 40 40 31.0495 40 20.0005C40 8.95152 31.0492 0 20 0ZM1.46293 20.0005C1.46293 9.75627 9.75552 1.46388 20 1.46388C30.2445 1.46388 38.5371 9.75627 38.5371 20.0005C38.5371 30.2447 30.2445 38.5371 20 38.5371C9.75552 38.5371 1.46293 30.2437 1.46293 20.0005Z" fill="#011627"/>
<path d="M20.2453 24.6357C22.6704 24.6357 24.636 22.6701 24.636 20.245C24.636 17.82 22.6704 15.8553 20.2453 15.8553C17.8201 15.8553 15.8555 17.821 15.8555 20.245C15.8555 22.6691 17.8211 24.6357 20.2453 24.6357Z" fill="#011627"/>
<g opacity="0.21">
<path fill-rule="evenodd" clip-rule="evenodd" d="M20.8755 24.2671L21.4363 28.4137L20.6069 24.2917L20.8755 24.2671Z" fill="#011627"/>
<path fill-rule="evenodd" clip-rule="evenodd" d="M20.8755 24.2671L21.4363 28.4137L20.6069 24.2917L20.8755 24.2671Z" fill="#011627"/>
<path fill-rule="evenodd" clip-rule="evenodd" d="M21.314 24.0722L22.3873 28.1205L21.0454 24.145L21.314 24.0722Z" fill="#011627"/>
<path fill-rule="evenodd" clip-rule="evenodd" d="M21.8011 23.8772L23.2886 27.8036L21.5571 23.9746L21.8011 23.8772Z" fill="#011627"/>
<path fill-rule="evenodd" clip-rule="evenodd" d="M22.1458 23.6082L24.1558 27.2778L21.9048 23.7273L22.1468 23.6082H22.1458Z" fill="#011627"/>
<path fill-rule="evenodd" clip-rule="evenodd" d="M22.487 23.27L24.9397 26.665L22.2627 23.4343L22.487 23.27Z" fill="#011627"/>
<path fill-rule="evenodd" clip-rule="evenodd" d="M22.873 22.9124L25.669 26.0448L22.6802 23.0904L22.873 22.9124Z" fill="#011627"/>
<path fill-rule="evenodd" clip-rule="evenodd" d="M23.1933 22.5886L26.2884 25.4042L23.0034 22.7794L23.1933 22.5886Z" fill="#011627"/>
<path fill-rule="evenodd" clip-rule="evenodd" d="M23.404 22.1585L26.8287 24.5698L23.2456 22.3867L23.404 22.1585Z" fill="#011627"/>
<path fill-rule="evenodd" clip-rule="evenodd" d="M23.6518 21.6946L27.3155 23.7468L23.5278 21.9268L23.6518 21.6956V21.6946Z" fill="#011627"/>
<path fill-rule="evenodd" clip-rule="evenodd" d="M24.006 21.4401L28.0219 22.6137L23.9194 21.6949L24.006 21.4401Z" fill="#011627"/>
<path fill-rule="evenodd" clip-rule="evenodd" d="M24.0062 20.9601L28.1412 21.6261L23.9639 21.2345L24.0062 20.9601Z" fill="#011627"/>
<path fill-rule="evenodd" clip-rule="evenodd" d="M24.0269 20.4349L28.22 20.673L24.0171 20.6976L24.0269 20.4349Z" fill="#011627"/>
<path fill-rule="evenodd" clip-rule="evenodd" d="M24.1095 19.8922L28.2908 20.0594L24.0869 20.1607L24.1095 19.8922Z" fill="#011627"/>
<path fill-rule="evenodd" clip-rule="evenodd" d="M23.9917 19.4263L28.165 19.0722L24.0173 19.7028L23.9917 19.4263Z" fill="#011627"/>
<path fill-rule="evenodd" clip-rule="evenodd" d="M23.8862 18.9113L28.0114 18.1282L23.9394 19.1691L23.8853 18.9123L23.8862 18.9113Z" fill="#011627"/>
<path fill-rule="evenodd" clip-rule="evenodd" d="M23.6787 18.531L27.6415 17.1891L23.7535 18.7897L23.6787 18.531Z" fill="#011627"/>
<path fill-rule="evenodd" clip-rule="evenodd" d="M23.4019 18.1371L27.1718 16.3112L23.5248 18.387L23.4019 18.1381V18.1371Z" fill="#011627"/>
<path fill-rule="evenodd" clip-rule="evenodd" d="M23.1177 17.6961L26.6889 15.4865L23.2603 17.9174L23.1177 17.697V17.6961Z" fill="#011627"/>
<path fill-rule="evenodd" clip-rule="evenodd" d="M22.856 17.3253L26.1665 14.7664L23.0114 17.5456L22.856 17.3253Z" fill="#011627"/>
<path fill-rule="evenodd" clip-rule="evenodd" d="M22.4663 17.0432L25.4364 14.0899L22.6641 17.239L22.4663 17.0432Z" fill="#011627"/>
<path fill-rule="evenodd" clip-rule="evenodd" d="M22.0532 16.7179L24.7105 13.4665L22.2598 16.8812L22.0532 16.7189V16.7179Z" fill="#011627"/>
<path fill-rule="evenodd" clip-rule="evenodd" d="M21.6006 16.39L23.5289 12.6595L21.8367 16.5199L21.6006 16.39Z" fill="#011627"/>
<path fill-rule="evenodd" clip-rule="evenodd" d="M21.1704 16.2458L22.5448 12.289L21.4134 16.3215L21.1704 16.2458Z" fill="#011627"/>
<path fill-rule="evenodd" clip-rule="evenodd" d="M20.6528 16.135L21.615 12.0473L20.9096 16.1901L20.6528 16.135Z" fill="#011627"/>
<path fill-rule="evenodd" clip-rule="evenodd" d="M20.1572 16.0362L20.8331 11.9072L20.4209 16.0913L20.1572 16.0362Z" fill="#011627"/>
<path fill-rule="evenodd" clip-rule="evenodd" d="M19.6812 16.0949L19.8386 11.9088L19.9586 16.1027L19.6812 16.0939V16.0949Z" fill="#011627"/>
<path fill-rule="evenodd" clip-rule="evenodd" d="M19.1568 16.1391L18.8823 11.9491L19.4185 16.1174L19.1568 16.1391Z" fill="#011627"/>
<path fill-rule="evenodd" clip-rule="evenodd" d="M19.7153 24.3693L19.5913 28.5514L19.9848 24.3653L19.7153 24.3693Z" fill="#011627"/>
<path fill-rule="evenodd" clip-rule="evenodd" d="M20.228 24.3647L20.4504 28.5842L20.473 24.3637H20.228V24.3647Z" fill="#011627"/>
<path fill-rule="evenodd" clip-rule="evenodd" d="M19.2562 24.222L18.6118 28.3608L19.5307 24.2672L19.2562 24.223V24.222Z" fill="#011627"/>
<path fill-rule="evenodd" clip-rule="evenodd" d="M18.7525 24.0786L17.6831 28.1397L19.0054 24.1504L18.7525 24.0786Z" fill="#011627"/>
<path fill-rule="evenodd" clip-rule="evenodd" d="M17.1729 23.0203L14.3887 26.1438L17.3814 23.1905L17.1729 23.0203Z" fill="#011627"/>
<path fill-rule="evenodd" clip-rule="evenodd" d="M16.9163 22.6144L13.7622 25.371L17.0973 22.8249L16.9153 22.6144H16.9163Z" fill="#011627"/>
<path fill-rule="evenodd" clip-rule="evenodd" d="M16.621 22.1788L13.1914 24.6019L16.7686 22.3952L16.621 22.1778V22.1788Z" fill="#011627"/>
<path fill-rule="evenodd" clip-rule="evenodd" d="M18.363 23.9014L16.6138 27.7028L18.6119 24.0037L18.363 23.9024V23.9014Z" fill="#011627"/>
<path fill-rule="evenodd" clip-rule="evenodd" d="M18.0007 23.5873L15.791 27.1457L18.2358 23.7358L18.0007 23.5873Z" fill="#011627"/>
<path fill-rule="evenodd" clip-rule="evenodd" d="M17.5907 23.2571L15.02 26.5774L17.7954 23.4214L17.5907 23.2571Z" fill="#011627"/>
<path fill-rule="evenodd" clip-rule="evenodd" d="M16.3098 21.8863L12.4385 23.4741L16.4229 22.1312L16.3098 21.8863Z" fill="#011627"/>
<path fill-rule="evenodd" clip-rule="evenodd" d="M16.2588 21.4079L12.2153 22.5028L16.3287 21.6764L16.2578 21.4079H16.2588Z" fill="#011627"/>
<path fill-rule="evenodd" clip-rule="evenodd" d="M16.1829 20.8892L12.0381 21.5641L16.2203 21.1489L16.1829 20.8892Z" fill="#011627"/>
<path fill-rule="evenodd" clip-rule="evenodd" d="M16.054 20.356L11.9131 20.96L16.1041 20.6206L16.054 20.356Z" fill="#011627"/>
<path fill-rule="evenodd" clip-rule="evenodd" d="M16.1222 19.8808L11.9341 19.9654L16.1251 20.1592L16.1212 19.8808H16.1222Z" fill="#011627"/>
<path fill-rule="evenodd" clip-rule="evenodd" d="M16.1754 19.3576L11.9902 19.0093L16.1488 19.6183L16.1754 19.3566V19.3576Z" fill="#011627"/>
<path fill-rule="evenodd" clip-rule="evenodd" d="M16.3353 18.9578L12.2534 18.038L16.2871 19.2235L16.3343 18.9578H16.3353Z" fill="#011627"/>
<path fill-rule="evenodd" clip-rule="evenodd" d="M16.5691 18.5382L12.6289 17.1166L16.4727 18.7999L16.5691 18.5392V18.5382Z" fill="#011627"/>
<path fill-rule="evenodd" clip-rule="evenodd" d="M16.8087 18.0691L13.0259 16.2451L16.6896 18.3042L16.8077 18.0701L16.8087 18.0691Z" fill="#011627"/>
<path fill-rule="evenodd" clip-rule="evenodd" d="M17.0277 17.6723L13.4683 15.4736L16.8969 17.9075L17.0287 17.6723H17.0277Z" fill="#011627"/>
<path fill-rule="evenodd" clip-rule="evenodd" d="M17.3839 17.3497L14.1216 14.7229L17.2078 17.5651L17.3839 17.3497Z" fill="#011627"/>
<path fill-rule="evenodd" clip-rule="evenodd" d="M17.7617 16.9834L14.7798 14.0271L17.5738 17.1663L17.7617 16.9834Z" fill="#011627"/>
<path fill-rule="evenodd" clip-rule="evenodd" d="M18.1346 16.549L15.8994 13.0122L17.9133 16.7024L18.1346 16.549Z" fill="#011627"/>
<path fill-rule="evenodd" clip-rule="evenodd" d="M18.5991 16.4156L16.8184 12.624L18.3462 16.5317L18.5991 16.4156Z" fill="#011627"/>
<path fill-rule="evenodd" clip-rule="evenodd" d="M19.0966 16.2521L17.7124 12.2874L18.8477 16.3337L19.0976 16.2521H19.0966Z" fill="#011627"/>
</g>
<path d="M23.4149 19.2691C24.3574 19.2691 25.1219 18.5047 25.1219 17.5622C25.1219 16.6198 24.3574 15.8553 23.4149 15.8553C22.4724 15.8553 21.708 16.6198 21.708 17.5622C21.708 18.5047 22.4724 19.2691 23.4149 19.2691Z" fill="#F6F7F8"/>
<path fill-rule="evenodd" clip-rule="evenodd" d="M20.0026 1.00032C9.49542 1.00032 0.977539 9.51701 0.977539 20.0239C0.977539 30.5308 9.49542 39.0485 20.0026 39.0485C30.5097 39.0485 39.0276 30.5308 39.0276 20.0239C39.0276 9.51701 30.5097 1.00032 20.0026 1.00032ZM20.0026 38.0735C10.0346 38.0735 1.95348 29.9927 1.95348 20.0239C1.95348 10.0551 10.0346 1.97526 20.0026 1.97526C29.9706 1.97526 38.0517 10.0561 38.0517 20.0239C38.0517 29.9917 29.9706 38.0735 20.0026 38.0735Z" fill="#2EC4B6"/>
<path fill-rule="evenodd" clip-rule="evenodd" d="M20.0022 1.97487C10.0342 1.97487 1.95312 10.0557 1.95312 20.0235C1.95312 29.9913 10.0342 38.0732 20.0022 38.0732C29.9702 38.0732 38.0513 29.9923 38.0513 20.0235C38.0513 10.0548 29.9702 1.97487 20.0022 1.97487ZM20.1183 30.1212C14.606 30.1212 10.1188 25.6341 10.1188 20.1219C10.1188 14.6097 14.606 10.1217 20.1183 10.1217C25.6306 10.1217 30.1188 14.6097 30.1188 20.1219C30.1188 25.6341 25.6306 30.1212 20.1183 30.1212Z" fill="#F6F7F8"/>
</svg>
